# xmcd CD database file
#
# Track frame offsets:
#	150
#	33146
#	64677
#	86037
#	132353
#
# Disc length: 2218 seconds
#
# Revision: 0
# Processed by: cddbd v1.5.1PL0 Copyright (c) Steve Scherf et al.
# Submitted via: CDex 1.51
#
DISCID=3a08a805
DTITLE=Marco Colonna - Roberto Gavazzi - La Mattina
DYEAR=1900
DGENRE=Jazz
TTITLE0=Impro#2
TTITLE1=Nardis
TTITLE2=Epistrophy
TTITLE3=Impro#1
TTITLE4=Amarus in Fundus
EXTD=
EXTT0=
EXTT1=
EXTT2=
EXTT3=
EXTT4=
PLAYORDER=
